<svg width="20" height="26" viewBox="0 0 20 26" fill="none" xmlns="http://www.w3.org/2000/svg">
<g id="X Rental Logo">
<path id="Vector" d="M16.094 15.5924L10.0745 23.0227L4.05652 15.5924C2.83255 14.0822 2.20609 12.1667 2.29834 10.2165C2.3906 8.26628 3.19502 6.41998 4.55595 5.03487C5.27689 4.29992 6.13461 3.71657 7.07964 3.31848C8.02467 2.92039 9.03831 2.71543 10.0621 2.71543C11.0858 2.71543 12.0995 2.92039 13.0445 3.31848C13.9895 3.71657 14.8473 4.29992 15.5682 5.03487C16.9473 6.40845 17.7665 8.25524 17.8639 10.2101C17.9612 12.165 17.3297 14.0856 16.094 15.5924Z" fill="#00DA30"/>
<path id="Vector_2" d="M5.48657 5.70765C4.12124 7.08873 3.31107 8.93276 3.21279 10.883C3.11452 12.8332 3.73514 14.7509 4.95457 16.2651L10.242 22.7875L10.0745 23.0227L4.05653 15.5924C2.82332 14.0741 2.19561 12.1448 2.2965 10.1828C2.39739 8.22074 3.21961 6.36763 4.6019 4.98688C5.98418 3.60612 7.82679 2.79735 9.76832 2.71919C11.7099 2.64103 13.6102 3.29912 15.0967 4.5644C13.6018 3.62842 11.8375 3.23192 10.0912 3.43953C8.34499 3.64714 6.71975 4.44661 5.48036 5.70765H5.48657Z" fill="white"/>
<path id="Vector_3" d="M16.094 15.5924L10.0745 23.0227L4.05652 15.5924C2.83255 14.0822 2.20609 12.1667 2.29834 10.2165C2.3906 8.26628 3.19502 6.41998 4.55595 5.03487C5.27689 4.29992 6.13461 3.71657 7.07964 3.31848C8.02467 2.92039 9.03831 2.71543 10.0621 2.71543C11.0858 2.71543 12.0995 2.92039 13.0445 3.31848C13.9895 3.71657 14.8473 4.29992 15.5682 5.03487C16.9473 6.40846 17.7665 8.25524 17.8639 10.2101C17.9612 12.165 17.3297 14.0856 16.094 15.5924Z" stroke="#302F30" stroke-width="1.5" stroke-linecap="round" stroke-linejoin="round"/>
<path id="Vector_4" d="M10.0745 13.5411C11.9658 13.5411 13.4991 11.9908 13.4991 10.0784C13.4991 8.16598 11.9658 6.61567 10.0745 6.61567C8.18308 6.61567 6.64981 8.16598 6.64981 10.0784C6.64981 11.9908 8.18308 13.5411 10.0745 13.5411Z" fill="#302F30"/>
</g>
</svg>
